<svg class="logo-dropdown logo logo--white" version="1.1" id="Layer_1"
    xmlns="http://www.w3.org/2000/svg"
    xmlns:xlink="http://www.w3.org/1999/xlink" x="0px" y="0px" viewBox="0 0 3141.4 1286.4" style="enable-background:new 0 0 3141.4 1286.4;" xml:space="preserve">
    <path d="M2965.5,688.5V437.2h87.5V306.8h-87.5V49.6h-130.2v257.2H2748v130.3h87.4v251.4c0,133.6,91.2,226.9,215.6,226.9
                                V785.1C3001.3,785.1,2965.5,741.8,2965.5,688.5z" fill="white">
                                </path>
    <path d="M1945.3,307.2h-128.8v608h128.8V584.3c5.9-47.8,21.4-88.1,53.2-120.9c20.1-20.7,46.3-34.9,69.7-42.5V282.4
                                c-41,7.5-81.9,25.2-122.9,53.1V307.2z" fill="white"></path>
    <path d="M1589.3,307.2h-128.8v608.1h128.8v-331c5.9-47.8,21.4-88.1,53.2-120.9c20.1-20.7,46.3-34.9,69.7-42.5V282.4
                                c-41,7.5-81.9,25.2-122.9,53.1V307.2z" fill="white"></path>
    <path d="M2421.6,307.2c-167.6,0-304,136.4-304,304s136.4,304,304,304c167.9,0,304-136.1,304-304
                                c0-67.2-22.3-132.5-63.3-185.7C2604.2,350.3,2516.5,307.2,2421.6,307.2z M2555.9,721.3c-32.9,40.3-82.3,63.6-134.3,63.6
                                c-95.8,0-173.7-77.9-173.7-173.7s77.9-173.7,173.7-173.7c95.9,0,173.7,77.8,173.7,173.7C2595.2,651.4,2581.3,690.3,2555.9,721.3z" fill="white"></path>
    <path d="M1204.5,362.2c-51.1-35.9-112-55.1-174.5-54.9c-167.6,0-304,136.4-304,304s136.4,304,304,304
                                c62.4,0.1,123.4-19.1,174.5-55v55.1h130.3V307.2h-130.3V362.2z M1164.4,721.3c-33,40.3-82.3,63.6-134.3,63.6
                                c-95.8,0-173.7-77.9-173.7-173.7s77.9-173.7,173.7-173.7c95.9,0,173.7,77.8,173.7,173.7C1203.8,651.4,1189.9,690.3,1164.4,721.3z" fill="white"></path>
    <path d="M379,307.2c-62.4-0.2-123.4,19-174.5,54.9v-54.9H74.2v872.1h130.3V860.2c51.1,35.9,112,55.1,174.5,55
                                c167.6,0,304-136.4,304-304S546.6,307.2,379,307.2z M379,784.9c-95.9,0.7-174.3-76.4-175-172.4s76.4-174.3,172.4-175
                                c0.9,0,1.8,0,2.6,0c95.8,0,173.7,77.9,173.7,173.7S474.7,784.9,379,784.9z" fill="white"></path>
</svg>