<svg width="200" height="34" viewBox="0 0 200 34" fill="none"
    xmlns="http://www.w3.org/2000/svg" class="jss4">
    <path d="M82.03 17.65V10.81H84.54V6.71H82.03V0H78.19V6.71H75.72V10.82H78.19V17.66C78.19 21.44 81.05 24.52 84.58 24.52V20.39C83.17 20.39 82.03 19.16 82.03 17.65Z" fill="#F04E4A"></path>
    <path d="M52.98 7.17009H49.33V24.4401H52.98V15.1401C53.15 13.7901 53.58 12.6401 54.49 11.7201C55.06 11.1301 55.8 10.7301 56.46 10.5201V6.59009C55.3 6.80009 54.14 7.30009 52.98 8.09009V7.17009Z" fill="#F04E4A"></path>
    <path d="M42.9 7.17009H39.25V24.4401H42.9V15.1401C43.07 13.7901 43.5 12.6401 44.41 11.7201C44.98 11.1301 45.72 10.7301 46.38 10.5201V6.59009C45.22 6.80009 44.06 7.30009 42.9 8.09009V7.17009Z" fill="#F04E4A"></path>
    <path d="M66.47 7.2901C61.72 7.2901 57.86 11.1501 57.86 15.9001C57.86 20.6501 61.72 24.5101 66.47 24.5101C69.06 24.5101 71.48 23.3601 73.13 21.3601C74.39 19.8301 75.08 17.8901 75.08 15.9001C75.08 13.9801 74.46 12.1601 73.29 10.6401C71.64 8.5201 69.16 7.2901 66.47 7.2901ZM70.27 19.0201C69.33 20.1601 67.94 20.8201 66.47 20.8201C63.76 20.8201 61.55 18.6101 61.55 15.9001C61.55 13.1901 63.76 10.9801 66.47 10.9801C68.01 10.9801 69.43 11.6801 70.37 12.9001C71.04 13.7701 71.39 14.8001 71.39 15.9001C71.39 17.0501 71 18.1301 70.27 19.0201Z" fill="#F04E4A"></path>
    <path d="M32.01 8.8501C30.58 7.8501 28.87 7.2901 27.07 7.2901C22.32 7.2901 18.46 11.1501 18.46 15.9001C18.46 20.6501 22.32 24.5101 27.07 24.5101C28.86 24.5101 30.58 23.9601 32.01 22.9501V24.3701H35.7V7.2901H32.01V8.8501ZM30.87 19.0201C29.93 20.1601 28.54 20.8201 27.07 20.8201C24.36 20.8201 22.15 18.6101 22.15 15.9001C22.15 13.1901 24.36 10.9801 27.07 10.9801C28.61 10.9801 30.03 11.6801 30.97 12.9001C31.64 13.7701 31.99 14.8001 31.99 15.9001C31.99 17.0501 31.6 18.1301 30.87 19.0201Z" fill="#F04E4A"></path>
    <path d="M8.63 7.2901C6.83 7.2901 5.12 7.8401 3.69 8.8501V7.2901H0V33.8101H3.69V22.9501C5.12 23.9601 6.84 24.5101 8.63 24.5101C13.38 24.5101 17.24 20.6501 17.24 15.9001C17.24 11.1501 13.38 7.2901 8.63 7.2901ZM8.63 20.8201C7.15 20.8201 5.77 20.1601 4.83 19.0201C4.1 18.1301 3.72 17.0501 3.72 15.9001C3.72 14.8001 4.07 13.7601 4.74 12.9001C5.68 11.6801 7.1 10.9801 8.64 10.9801C11.35 10.9801 13.56 13.1901 13.56 15.9001C13.55 18.6101 11.34 20.8201 8.63 20.8201Z" fill="#F04E4A"></path>
    <path d="M121.63 7.87996H125.44V9.39996C126.77 8.08996 128.26 7.42996 129.92 7.42996C131.83 7.42996 133.32 8.02996 134.39 9.22996C135.31 10.25 135.77 11.92 135.77 14.24V24.3H131.96V15.13C131.96 13.51 131.74 12.39 131.29 11.78C130.85 11.15 130.05 10.84 128.9 10.84C127.64 10.84 126.75 11.26 126.22 12.09C125.7 12.91 125.44 14.34 125.44 16.39V24.31H121.63V7.87996Z" fill="#0f172a"></path>
    <path d="M138.83 7.87996H142.64V9.39996C143.97 8.08996 145.46 7.42996 147.12 7.42996C149.03 7.42996 150.52 8.02996 151.59 9.22996C152.51 10.25 152.97 11.92 152.97 14.24V24.3H149.16V15.13C149.16 13.51 148.94 12.39 148.49 11.78C148.05 11.15 147.25 10.84 146.1 10.84C144.84 10.84 143.95 11.26 143.42 12.09C142.9 12.91 142.64 14.34 142.64 16.39V24.31H138.83V7.87996Z" fill="#0f172a"></path>
    <path d="M182.56 24.5101C177.81 24.5101 173.95 20.6501 173.95 15.9001C173.95 11.1501 177.81 7.2901 182.56 7.2901C185.25 7.2901 187.73 8.5101 189.38 10.6401L186.46 12.9001C185.52 11.6801 184.1 10.9801 182.56 10.9801C179.85 10.9801 177.64 13.1901 177.64 15.9001C177.64 18.6101 179.85 20.8201 182.56 20.8201C184.04 20.8201 185.42 20.1601 186.36 19.0201L189.21 21.3601C187.57 23.3601 185.15 24.5101 182.56 24.5101Z" fill="#0f172a"></path>
    <path d="M199.97 10.82V6.71H197.46V0H193.62V6.71H191.15V10.82H193.62V17.66C193.62 21.44 196.48 24.52 200.01 24.52V20.39C198.61 20.39 197.47 19.16 197.47 17.66V10.82H199.97Z" fill="#0f172a"></path>
    <path d="M163.81 24.54C159.06 24.54 155.2 20.68 155.2 15.93C155.2 11.18 159.06 7.32004 163.81 7.32004C166.5 7.32004 168.98 8.54004 170.63 10.67C171.64 11.98 172.25 13.55 172.39 15.2L172.56 17.22L159.03 17.1C159.55 19.25 161.5 20.85 163.81 20.85C165.29 20.85 166.67 20.19 167.61 19.05C167.71 18.93 167.8 18.8 167.89 18.67L170.95 20.73C170.8 20.96 170.63 21.18 170.46 21.39C168.82 23.4 166.4 24.54 163.81 24.54ZM159.59 13.42L168.08 13.5C167.97 13.31 167.84 13.12 167.71 12.94C166.77 11.72 165.35 11.02 163.81 11.02C162.02 11.02 160.45 11.98 159.59 13.42Z" fill="#0f172a"></path>
    <path d="M111.17 7.2901C106.42 7.2901 102.56 11.1501 102.56 15.9001C102.56 20.6501 106.42 24.5101 111.17 24.5101C113.76 24.5101 116.18 23.3601 117.83 21.3601C119.09 19.8301 119.78 17.8901 119.78 15.9001C119.78 13.9801 119.16 12.1601 117.99 10.6401C116.34 8.5201 113.85 7.2901 111.17 7.2901ZM114.97 19.0201C114.03 20.1601 112.64 20.8201 111.17 20.8201C108.46 20.8201 106.25 18.6101 106.25 15.9001C106.25 13.1901 108.46 10.9801 111.17 10.9801C112.71 10.9801 114.13 11.6801 115.07 12.9001C115.74 13.7701 116.09 14.8001 116.09 15.9001C116.08 17.0501 115.7 18.1301 114.97 19.0201Z" fill="#0f172a"></path>
    <path d="M97.58 20.3401C97.55 20.3501 97.52 20.3701 97.49 20.3801C97.47 20.3901 97.45 20.4001 97.44 20.4001C97.41 20.4101 97.39 20.4201 97.36 20.4301C96.93 20.6101 96.47 20.7301 96 20.7901C95.96 20.7901 95.92 20.8001 95.88 20.8001C95.87 20.8001 95.87 20.8001 95.86 20.8001C95.82 20.8001 95.79 20.8101 95.75 20.8101C95.74 20.8101 95.73 20.8101 95.72 20.8101C95.69 20.8101 95.65 20.8101 95.62 20.8101C95.61 20.8101 95.6 20.8101 95.58 20.8101C95.54 20.8101 95.5 20.8101 95.46 20.8101H95.45C92.74 20.8101 90.53 18.6001 90.53 15.8901C90.53 13.1801 92.74 10.9701 95.45 10.9701H95.46C95.5 10.9701 95.54 10.9701 95.58 10.9701C95.59 10.9701 95.6 10.9701 95.62 10.9701C95.65 10.9701 95.69 10.9701 95.72 10.9701C95.73 10.9701 95.74 10.9701 95.75 10.9701C95.79 10.9701 95.82 10.9701 95.85 10.9801C95.86 10.9801 95.86 10.9801 95.87 10.9801C95.91 10.9801 95.95 10.9901 95.99 10.9901C95.99 10.9901 95.99 10.9901 96 10.9901C96.47 11.0401 96.93 11.1601 97.36 11.3501C97.39 11.3601 97.41 11.3701 97.44 11.3801C97.46 11.3901 97.48 11.4001 97.49 11.4001C97.52 11.4101 97.55 11.4301 97.58 11.4401C98.21 11.7501 98.78 12.1901 99.24 12.7501L102.09 10.4101C101.03 9.12005 99.65 8.19005 98.11 7.69005H98.1C98.05 7.67005 97.99 7.65005 97.93 7.64005C97.91 7.63005 97.89 7.63005 97.87 7.62005C97.83 7.61005 97.78 7.59005 97.74 7.58005C97.71 7.57005 97.67 7.56005 97.64 7.55005C97.61 7.54005 97.57 7.53005 97.54 7.52005C97.49 7.51005 97.44 7.50005 97.39 7.48005C97.37 7.48005 97.35 7.47005 97.33 7.47005C97.1 7.42005 96.88 7.38005 96.65 7.35005C96.64 7.35005 96.63 7.35005 96.62 7.35005C96.55 7.34005 96.49 7.33005 96.42 7.33005C96.4 7.33005 96.39 7.33005 96.37 7.32005C96.31 7.31005 96.25 7.31005 96.19 7.30005C96.17 7.30005 96.15 7.30005 96.13 7.29005C96.07 7.29005 96.02 7.28005 95.96 7.28005C95.94 7.28005 95.92 7.28005 95.89 7.28005C95.83 7.28005 95.78 7.27005 95.72 7.27005C95.7 7.27005 95.68 7.27005 95.66 7.27005C95.58 7.27005 95.51 7.27005 95.43 7.27005C95.28 7.27005 95.13 7.27005 94.99 7.28005C90.45 7.51005 86.82 11.2801 86.82 15.8801C86.82 20.4801 90.44 24.2501 94.99 24.4801C95.14 24.4901 95.28 24.4901 95.43 24.4901C95.51 24.4901 95.58 24.4901 95.66 24.4901C95.68 24.4901 95.7 24.4901 95.72 24.4901C95.78 24.4901 95.83 24.4901 95.89 24.4801C95.91 24.4801 95.93 24.4801 95.96 24.4801C96.02 24.4801 96.07 24.4701 96.13 24.4701C96.15 24.4701 96.17 24.4701 96.19 24.4601C96.25 24.4501 96.31 24.4501 96.37 24.4401C96.39 24.4401 96.4 24.4401 96.42 24.4301C96.49 24.4201 96.55 24.4101 96.62 24.4101C96.63 24.4101 96.64 24.4101 96.65 24.4101C96.88 24.3801 97.11 24.3401 97.33 24.2901C97.35 24.2901 97.37 24.2801 97.39 24.2801C97.44 24.2701 97.49 24.2601 97.54 24.2401C97.57 24.2301 97.61 24.2201 97.64 24.2101C97.67 24.2001 97.71 24.1901 97.74 24.1801C97.78 24.1701 97.83 24.1501 97.87 24.1401C97.89 24.1301 97.91 24.1301 97.93 24.1201C97.99 24.1001 98.04 24.0901 98.1 24.0701H98.11C99.65 23.5701 101.03 22.6301 102.09 21.3501L99.24 19.0101C98.79 19.5901 98.22 20.0301 97.58 20.3401Z" fill="#0f172a"></path>
</svg>